# Blender v2.79 (sub 0) OBJ File: 'cajamadera.blend'
# www.blender.org
mtllib cajamadera.mtl
o Cube
v 1.000000 -1.000000 -1.000000
v 1.000000 -1.000000 1.000000
v 1.000000 -1.000000 0.000000
v 1.000000 -1.000000 -0.899771
v 1.000000 0.000000 0.000000
v 1.000000 0.777027 -1.000000
v 0.999999 0.777027 1.000001
v 1.000000 0.777027 0.000000
v 0.925431 1.000000 0.000001
v 0.925431 1.000000 0.850864
v 0.925432 1.000000 -0.850863
v 1.099943 0.771163 -1.083582
v 1.099943 1.012772 -1.083582
v 1.099941 0.771163 1.083583
v 1.099941 1.012772 1.083583
v 1.099942 1.012772 0.000001
v 1.019140 1.012772 0.921981
v 1.099942 0.771163 0.000000
v 1.019141 1.012772 0.000001
v 1.019141 1.012772 -0.921980
v 0.857702 -1.000000 -1.000000
v 0.857702 -1.000000 1.000000
v 0.857702 0.000000 -1.000000
v 0.857701 0.000000 1.000000
v 0.857702 -1.000000 0.000000
v 0.857701 0.777027 1.000000
v 0.857702 0.777027 -1.000000
v 0.793744 1.000000 -0.850863
v 0.793744 1.000000 0.850864
v 0.793744 1.000000 0.000000
v 0.943422 1.012772 -1.083582
v 0.943421 1.012772 1.083583
v 0.943421 0.771163 1.083583
v 0.943422 0.771163 -1.083582
v 0.874119 1.012772 -0.921980
v 0.874118 1.012772 0.921981
v 1.000000 -1.000000 0.883065
v 1.000000 0.000000 0.883065
v 0.999999 0.777027 0.883066
v 0.925431 1.000000 0.751368
v 1.099941 1.012772 0.956874
v 1.099941 0.771163 0.956874
v 1.019140 1.012772 0.814169
v 0.793744 1.000000 0.751368
v 0.857702 -1.000000 0.883065
v 1.037493 -1.000000 0.920558
v 1.037493 -1.000000 1.037493
v 1.037493 0.000000 1.037493
v 1.037493 0.000000 0.920559
v 1.037493 0.777027 1.037494
v 1.037493 0.777027 0.920559
v 0.895195 -1.000000 1.037493
v 0.895194 0.000000 1.037493
v 0.895194 0.777027 1.037494
v 1.000000 0.000000 -0.899770
v 1.000000 0.777027 -0.899770
v 0.925432 1.000000 -0.765581
v 1.099942 1.012772 -0.974975
v 1.099942 0.771163 -0.974975
v 1.019141 1.012772 -0.829570
v 0.793744 1.000000 -0.765581
v 0.857702 -1.000000 -0.899771
v 1.081825 -0.999435 -1.010794
v 1.081825 0.040774 -1.010794
v 1.081825 0.849045 -1.010794
v 0.933805 -0.999435 -1.010794
v 0.933805 0.040774 -1.010794
v 0.933805 0.849045 -1.010794
v 1.081825 -0.999435 -0.906535
v 1.081825 0.040774 -0.906534
v 1.081825 0.849045 -0.906534
v 1.000000 -1.197830 0.883065
v 1.000000 -1.197830 1.000000
v 1.000000 -1.197830 -0.899771
v 1.000000 -1.197830 0.000000
v 0.857702 -1.197830 -1.000000
v 0.857702 -1.197830 1.000000
v 0.857702 -1.197830 0.000000
v 0.857702 -1.197830 0.883065
v 0.857702 -1.197830 -0.899771
v 0.977732 -1.190480 -0.987996
v 1.095991 -0.996553 0.960552
v 1.095991 -0.996553 1.087766
v 1.095991 -0.996553 -0.979015
v 1.095991 -0.996553 -0.000145
v 0.902112 -0.996553 -1.088056
v 0.902112 -0.996553 1.087766
v 0.902112 -1.202249 -1.088056
v 1.095991 -0.996553 -1.088056
v 1.095991 -1.202249 0.960552
v 1.095991 -1.202249 1.087766
v 1.095991 -1.202249 -0.979015
v 1.095991 -1.202249 -0.000145
v 0.902112 -1.202249 1.087766
v 1.065651 -1.194252 -1.074997
v -1.000000 -1.000000 -1.000000
v -1.000000 -1.000000 1.000000
v -1.000000 -1.000000 0.000000
v 0.000000 -1.000000 -1.000000
v 0.000000 -1.000000 1.000000
v -1.000000 -1.000000 -0.899771
v 0.000000 0.000000 -1.000000
v 0.000000 0.000000 1.000000
v -1.000000 0.000000 0.000000
v 0.000000 -1.000000 -0.000000
v -1.000000 0.777027 -1.000000
v -0.999999 0.777027 1.000001
v 0.000000 0.777027 -1.000000
v 0.000000 0.777027 1.000000
v -1.000000 0.777027 0.000000
v -0.925431 1.000000 0.000001
v -0.925431 1.000000 0.850864
v -0.925432 1.000000 -0.850863
v 0.000000 1.000000 -0.850863
v 0.000000 1.000000 0.850863
v 0.000000 1.000000 0.000000
v -1.099943 0.771163 -1.083582
v -1.099943 1.012772 -1.083582
v -1.099941 0.771163 1.083583
v -1.099941 1.012772 1.083583
v -1.099942 1.012772 0.000001
v 0.000000 1.012772 -1.083582
v 0.000000 1.012772 1.083582
v 0.000000 0.771163 -1.083582
v -1.019140 1.012772 0.921981
v 0.000000 1.012772 -0.921980
v 0.000000 1.012772 0.921980
v 0.000000 0.771163 1.083582
v -1.099942 0.771163 0.000000
v -1.019141 1.012772 0.000001
v -1.019141 1.012772 -0.921980
v -0.857702 -1.000000 -1.000000
v -0.857702 -1.000000 1.000000
v -0.857702 0.000000 -1.000000
v -0.857701 0.000000 1.000000
v -0.857702 -1.000000 0.000000
v -0.857701 0.777027 1.000000
v -0.857702 0.777027 -1.000000
v -0.793744 1.000000 -0.850863
v -0.793744 1.000000 0.850864
v -0.793744 1.000000 0.000000
v -0.943422 1.012772 -1.083582
v -0.943421 1.012772 1.083583
v -0.943421 0.771163 1.083583
v -0.943422 0.771163 -1.083582
v -0.874119 1.012772 -0.921980
v -0.874118 1.012772 0.921981
v -1.000000 -1.000000 0.883065
v -1.000000 0.000000 0.883065
v 0.000000 -1.000000 0.883065
v -0.999999 0.777027 0.883066
v -0.925431 1.000000 0.751368
v 0.000000 1.000000 0.751368
v -1.099941 1.012772 0.956874
v -1.099941 0.771163 0.956874
v -1.019140 1.012772 0.814169
v -0.793744 1.000000 0.751368
v -0.857702 -1.000000 0.883065
v -1.037493 -1.000000 0.920558
v -1.037493 -1.000000 1.037493
v -1.037493 0.000000 1.037493
v -1.037493 0.000000 0.920559
v -1.037493 0.777027 1.037494
v -1.037493 0.777027 0.920559
v -0.895195 -1.000000 1.037493
v -0.895194 0.000000 1.037493
v -0.895194 0.777027 1.037494
v -1.000000 0.000000 -0.899770
v 0.000000 -1.000000 -0.899771
v -1.000000 0.777027 -0.899770
v -0.925432 1.000000 -0.765581
v 0.000000 1.000000 -0.765581
v -1.099942 1.012772 -0.974975
v -1.099942 0.771163 -0.974975
v -1.019141 1.012772 -0.829570
v -0.793744 1.000000 -0.765581
v -0.857702 -1.000000 -0.899771
v -1.081825 -0.999435 -1.010794
v -1.081825 0.040774 -1.010794
v -1.081825 0.849045 -1.010794
v -0.933805 -0.999435 -1.010794
v -0.933805 0.040774 -1.010794
v -0.933805 0.849045 -1.010794
v -1.081825 -0.999435 -0.906535
v -1.081825 0.040774 -0.906534
v -1.081825 0.849045 -0.906534
v -1.000000 -1.197830 0.883065
v -1.000000 -1.197830 1.000000
v -1.000000 -1.197830 -0.899771
v -1.000000 -1.197830 0.000000
v -0.857702 -1.197830 -1.000000
v 0.000000 -1.197830 -1.000000
v -0.857702 -1.197830 1.000000
v 0.000000 -1.197830 1.000000
v 0.000000 -1.197830 -0.899771
v -0.857702 -1.197830 0.000000
v -0.857702 -1.197830 0.883065
v -0.857702 -1.197830 -0.899771
v 0.000000 -1.197830 0.883065
v -0.977732 -1.190480 -0.987996
v -1.095991 -0.996553 0.960552
v -1.095991 -0.996553 1.087766
v -1.095991 -0.996553 -0.979015
v -1.095991 -0.996553 -0.000145
v -0.902112 -0.996553 -1.088056
v 0.000000 -0.996553 -1.088056
v -0.902112 -0.996553 1.087766
v 0.000000 -0.996553 1.087766
v -0.902112 -1.202249 -1.088056
v -1.095991 -0.996553 -1.088056
v 0.000000 -1.202249 -1.088056
v -1.095991 -1.202249 0.960552
v -1.095991 -1.202249 1.087766
v -1.095991 -1.202249 -0.979015
v -1.095991 -1.202249 -0.000145
v -0.902112 -1.202249 1.087766
v 0.000000 -1.202249 1.087766
v -1.065651 -1.194252 -1.074997
vt 0.524577 0.746978
vt 0.617038 0.943616
vt 0.600152 0.951469
vt 0.501135 0.747672
vt 0.631069 0.649660
vt 0.811708 0.786907
vt 0.728320 0.482548
vt 0.919402 0.483960
vt 0.360890 0.256171
vt 0.247544 0.399052
vt 0.057803 0.306234
vt 0.260350 0.083337
vt 0.431860 0.759743
vt 0.316802 0.697314
vt 0.326117 0.683801
vt 0.446895 0.748888
vt 0.194864 0.528554
vt 0.256171 0.403802
vt 0.205352 0.526387
vt 0.664502 0.468646
vt 0.564168 0.597070
vt 0.436441 0.517287
vt 0.531040 0.382440
vt 0.225198 0.537225
vt 0.221292 0.556758
vt 0.206361 0.544901
vt 0.222973 0.615103
vt 0.213286 0.602635
vt 0.218020 0.587355
vt 0.227600 0.598142
vt 0.194753 0.613159
vt 0.038370 0.663871
vt 0.033567 0.648387
vt 0.201549 0.597325
vt 0.719475 0.365848
vt 0.605066 0.275977
vt 0.726500 0.079057
vt 0.903831 0.312112
vt 0.421218 0.244240
vt 0.438871 0.247905
vt 0.423505 0.258030
vt 0.411620 0.252942
vt 0.490664 0.712529
vt 0.364565 0.624270
vt 0.013705 0.531606
vt 0.498084 0.732920
vt 0.486662 0.741787
vt 0.483221 0.732336
vt 0.228717 0.528182
vt 0.203972 0.629526
vt 0.045386 0.685824
vt 0.425118 0.784290
vt 0.434841 0.986214
vt 0.180367 0.890857
vt 0.303015 0.717356
vt 0.247984 0.547043
vt 0.356765 0.635631
vt 0.232536 0.556456
vt 0.442547 0.786690
vt 0.445896 0.763656
vt 0.458857 0.753078
vt 0.455827 0.773124
vt 0.222534 0.577849
vt 0.214274 0.570564
vt 0.201256 0.573552
vt 0.023417 0.610381
vt 0.014025 0.548699
vt 0.467621 0.746305
vt 0.333815 0.672543
vt 0.474676 0.749513
vt 0.478511 0.763746
vt 0.527942 0.976604
vt 0.478784 0.982804
vt 0.458816 0.984602
vt 0.312418 0.435859
vt 0.242703 0.539557
vt 0.304760 0.431050
vt 0.692849 0.483101
vt 0.683881 0.457407
vt 0.697628 0.456348
vt 0.959955 0.054138
vt 0.959955 0.083163
vt 0.919603 0.083163
vt 0.919603 0.054138
vt 0.386393 0.279103
vt 0.406562 0.296138
vt 0.397311 0.294764
vt 0.379702 0.287473
vt 0.615831 0.646884
vt 0.711059 0.485120
vt 0.571873 0.611406
vt 0.503705 0.716569
vt 0.435228 0.013786
vt 0.475631 0.195281
vt 0.445015 0.219037
vt 0.374628 0.031497
vt 0.283671 0.418580
vt 0.364621 0.266683
vt 0.980398 0.083163
vt 0.980398 0.054138
vt 0.692746 0.483635
vt 0.673297 0.490055
vt 0.912131 0.364187
vt 0.719126 0.394217
vt 0.665874 0.483319
vt 0.589109 0.624678
vt 0.508449 0.720610
vt 0.514458 0.734659
vt 0.419757 0.221585
vt 0.347498 0.042399
vt 0.694447 0.412028
vt 0.569764 0.326100
vt 0.582868 0.306991
vt 0.718611 0.394318
vt 0.727013 0.416412
vt 0.915578 0.388634
vt 0.407876 0.276586
vt 0.538987 0.370639
vt 0.378433 0.251353
vt 0.402667 0.265067
vt 0.959955 0.013786
vt 0.980398 0.013786
vt 0.722208 0.467098
vt 0.406366 0.232540
vt 0.706698 0.422234
vt 0.723273 0.433479
vt 0.702266 0.437623
vt 0.277491 0.073628
vt 0.327727 0.050592
vt 0.560630 0.339872
vt 0.692632 0.431301
vt 0.919402 0.463274
vt 0.918119 0.409698
vt 0.524577 0.746978
vt 0.501135 0.747672
vt 0.631069 0.649660
vt 0.728320 0.482548
vt 0.360890 0.256171
vt 0.247544 0.399052
vt 0.431860 0.759743
vt 0.446895 0.748888
vt 0.326117 0.683801
vt 0.316802 0.697314
vt 0.194864 0.528554
vt 0.205352 0.526387
vt 0.256171 0.403802
vt 0.664502 0.468646
vt 0.531040 0.382440
vt 0.436441 0.517287
vt 0.564168 0.597070
vt 0.206361 0.544901
vt 0.221292 0.556758
vt 0.225198 0.537225
vt 0.222973 0.615103
vt 0.227600 0.598142
vt 0.218020 0.587355
vt 0.213286 0.602635
vt 0.194753 0.613159
vt 0.201549 0.597325
vt 0.719475 0.365848
vt 0.605066 0.275977
vt 0.421218 0.244240
vt 0.411620 0.252942
vt 0.423505 0.258030
vt 0.438871 0.247905
vt 0.364565 0.624270
vt 0.490664 0.712529
vt 0.483221 0.732336
vt 0.486662 0.741787
vt 0.498084 0.732920
vt 0.228717 0.528182
vt 0.203972 0.629526
vt 0.425118 0.784290
vt 0.303015 0.717356
vt 0.247984 0.547043
vt 0.232536 0.556456
vt 0.356765 0.635631
vt 0.442547 0.786690
vt 0.455827 0.773124
vt 0.458857 0.753078
vt 0.445896 0.763656
vt 0.214274 0.570564
vt 0.222534 0.577849
vt 0.201256 0.573552
vt 0.333815 0.672543
vt 0.467621 0.746305
vt 0.474676 0.749513
vt 0.478511 0.763746
vt 0.312418 0.435859
vt 0.304760 0.431050
vt 0.242703 0.539557
vt 0.692849 0.483101
vt 0.697628 0.456348
vt 0.683881 0.457407
vt 0.959955 0.054138
vt 0.919603 0.054138
vt 0.919603 0.083163
vt 0.959955 0.083163
vt 0.386393 0.279103
vt 0.379702 0.287473
vt 0.397311 0.294764
vt 0.406562 0.296138
vt 0.711059 0.485120
vt 0.615831 0.646884
vt 0.503705 0.716569
vt 0.571873 0.611406
vt 0.445015 0.219037
vt 0.475631 0.195281
vt 0.283671 0.418580
vt 0.364621 0.266683
vt 0.980398 0.083163
vt 0.980398 0.054138
vt 0.692746 0.483635
vt 0.673297 0.490055
vt 0.719126 0.394217
vt 0.665874 0.483319
vt 0.589109 0.624678
vt 0.508449 0.720610
vt 0.514458 0.734659
vt 0.419757 0.221585
vt 0.694447 0.412028
vt 0.718611 0.394318
vt 0.582868 0.306991
vt 0.569764 0.326100
vt 0.727013 0.416412
vt 0.538987 0.370639
vt 0.407876 0.276586
vt 0.402667 0.265067
vt 0.378433 0.251353
vt 0.980398 0.013786
vt 0.959955 0.013786
vt 0.722208 0.467098
vt 0.406366 0.232540
vt 0.706698 0.422234
vt 0.702266 0.437623
vt 0.723273 0.433479
vt 0.560630 0.339872
vt 0.692632 0.431301
vn -0.0000 -0.9975 0.0700
vn 0.0000 0.0000 -1.0000
vn -0.0000 -0.0000 1.0000
vn -0.1350 0.9908 -0.0000
vn -0.7071 -0.0000 0.7071
vn 1.0000 -0.0000 0.0000
vn 0.0000 -0.9975 -0.0700
vn 0.0000 0.9843 -0.1768
vn 0.0000 -1.0000 0.0000
vn -0.0460 -0.9989 0.0000
vn -0.0586 -0.9983 0.0000
vn 0.0000 1.0000 0.0000
vn 0.0000 0.9843 0.1768
vn 0.7071 0.0000 -0.7071
vn -0.0359 0.9994 0.0000
vn -0.1404 0.0000 -0.9901
vn 0.0824 -0.0000 0.9966
vn 0.0000 -0.9986 -0.0523
vn 0.0069 -1.0000 0.0000
vn -0.6607 0.7507 0.0000
vn -0.0000 0.1482 0.9890
vn -1.0000 0.0000 0.0000
vn 0.0000 0.9992 -0.0392
vn 0.0000 0.9992 0.0391
vn 0.0000 -0.9987 -0.0503
vn 0.0466 -0.9956 0.0818
vn 0.0299 -0.9986 -0.0425
vn 0.9857 -0.0790 -0.1489
vn 0.0373 -0.0351 -0.9987
vn -0.0000 -0.9987 0.0501
vn -0.0947 -0.9939 -0.0558
vn 0.1350 0.9908 -0.0000
vn 0.7071 -0.0000 0.7071
vn 0.0460 -0.9989 0.0000
vn 0.0586 -0.9983 0.0000
vn -0.7071 0.0000 -0.7071
vn 0.0359 0.9994 0.0000
vn 0.1404 0.0000 -0.9901
vn -0.0824 -0.0000 0.9966
vn -0.0069 -1.0000 0.0000
vn 0.6607 0.7507 0.0000
vn -0.0466 -0.9956 0.0818
vn -0.0299 -0.9986 -0.0425
vn -0.9857 -0.0790 -0.1489
vn -0.0373 -0.0351 -0.9987
vn 0.0947 -0.9939 -0.0558
usemtl Material
s off
f 27/1/1 108/2/1 124/3/1 34/4/1
f 27/1/2 23/5/2 102/6/2 108/2/2
f 23/5/2 21/7/2 99/8/2 102/6/2
f 22/9/3 24/10/3 103/11/3 100/12/3
f 57/13/4 9/14/4 19/15/4 60/16/4
f 26/17/5 24/10/5 53/18/5 54/19/5
f 4/20/6 55/21/6 5/22/6 3/23/6
f 26/17/7 7/24/7 14/25/7 33/26/7
f 40/27/4 10/28/4 17/29/4 43/30/4
f 29/31/8 115/32/8 127/33/8 36/34/8
f 62/35/9 25/36/9 105/37/9 169/38/9
f 73/39/10 72/40/10 90/41/10 91/42/10
f 55/21/6 56/43/6 8/44/6 5/22/6
f 24/10/3 26/17/3 109/45/3 103/11/3
f 56/43/11 6/46/11 12/47/11 59/48/11
f 7/24/12 26/17/12 54/19/12 50/49/12
f 44/50/12 153/51/12 115/32/12 29/31/12
f 61/52/12 172/53/12 116/54/12 30/55/12
f 39/56/11 8/44/11 18/57/11 42/58/11
f 28/59/13 11/60/13 20/61/13 35/62/13
f 42/58/6 41/63/6 15/64/6 14/25/6
f 33/26/3 32/65/3 123/66/3 128/67/3
f 59/48/6 58/68/6 16/69/6 18/57/6
f 58/68/12 13/70/12 20/61/12 60/16/12
f 32/65/12 15/64/12 17/29/12 36/34/12
f 31/71/2 34/4/2 124/3/2 122/72/2
f 41/63/12 16/69/12 19/15/12 43/30/12
f 31/71/12 122/72/12 126/73/12 35/62/12
f 13/70/12 31/71/12 35/62/12 20/61/12
f 13/70/2 12/47/2 34/4/2 31/71/2
f 123/66/12 32/65/12 36/34/12 127/33/12
f 14/25/3 15/64/3 32/65/3 33/26/3
f 114/74/13 28/59/13 35/62/13 126/73/13
f 57/13/12 61/52/12 30/55/12 9/14/12
f 40/27/12 44/50/12 29/31/12 10/28/12
f 38/75/14 39/56/14 51/76/14 49/77/14
f 1/78/15 4/20/15 84/79/15 89/80/15
f 62/81/2 4/82/2 74/83/2 80/84/2
f 10/28/8 29/31/8 36/34/8 17/29/8
f 109/45/7 26/17/7 33/26/7 128/67/7
f 2/85/9 37/86/9 46/87/9 47/88/9
f 21/7/16 23/5/16 67/89/16 66/90/16
f 56/43/17 55/21/17 70/91/17 71/92/17
f 6/46/1 27/1/1 34/4/1 12/47/1
f 150/93/2 45/94/2 79/95/2 199/96/2
f 9/14/12 30/55/12 44/50/12 40/27/12
f 15/64/12 41/63/12 43/30/12 17/29/12
f 18/57/6 16/69/6 41/63/6 42/58/6
f 7/24/11 39/56/11 42/58/11 14/25/11
f 30/55/12 116/54/12 153/51/12 44/50/12
f 5/22/6 8/44/6 39/56/6 38/75/6
f 25/36/9 45/94/9 150/93/9 105/37/9
f 9/14/4 40/27/4 43/30/4 19/15/4
f 3/23/6 5/22/6 38/75/6 37/86/6
f 46/87/6 49/77/6 48/97/6 47/88/6
f 49/77/6 51/76/6 50/49/6 48/97/6
f 48/97/3 50/49/3 54/19/3 53/18/3
f 47/88/3 48/97/3 53/18/3 52/98/3
f 39/56/12 7/24/12 50/49/12 51/76/12
f 22/9/9 2/85/9 47/88/9 52/98/9
f 37/86/14 38/75/14 49/77/14 46/87/14
f 24/10/5 22/9/5 52/98/5 53/18/5
f 1/99/9 4/82/9 62/81/9 21/100/9
f 11/60/12 28/59/12 61/52/12 57/13/12
f 16/69/12 58/68/12 60/16/12 19/15/12
f 12/47/6 13/70/6 58/68/6 59/48/6
f 28/59/12 114/74/12 172/53/12 61/52/12
f 8/44/11 56/43/11 59/48/11 18/57/11
f 1/101/18 21/7/18 66/90/18 63/102/18
f 62/35/3 169/38/3 195/103/3 80/104/3
f 55/21/17 4/20/17 69/105/17 70/91/17
f 11/60/4 57/13/4 60/16/4 20/61/4
f 64/106/2 63/102/2 66/90/2 67/89/2
f 65/107/2 64/106/2 67/89/2 68/108/2
f 64/106/6 65/107/6 71/92/6 70/91/6
f 63/102/6 64/106/6 70/91/6 69/105/6
f 4/20/19 1/101/19 63/102/19 69/105/19
f 23/5/16 27/1/16 68/108/16 67/89/16
f 6/46/20 56/43/20 71/92/20 65/107/20
f 27/1/21 6/46/21 65/107/21 68/108/21
f 79/95/9 77/109/9 194/110/9 199/96/9
f 72/40/9 73/39/9 77/109/9 79/95/9
f 74/111/9 75/112/9 78/113/9 80/114/9
f 75/112/9 72/40/9 79/95/9 78/113/9
f 76/115/9 80/104/9 195/103/9 192/116/9
f 45/94/22 25/36/22 78/113/22 79/95/22
f 3/23/15 37/86/15 82/117/15 85/118/15
f 2/85/23 22/9/23 87/119/23 83/120/23
f 21/100/6 62/81/6 80/121/6 76/122/6
f 21/7/24 1/78/24 89/80/24 86/123/24
f 77/109/25 73/39/25 91/42/25 94/124/25
f 25/36/22 62/35/22 80/114/22 78/113/22
f 81/125/26 76/115/26 88/126/26 95/127/26
f 22/9/23 100/12/23 208/128/23 87/119/23
f 74/111/27 80/114/27 76/115/27 81/125/27
f 83/120/3 87/119/3 94/124/3 91/42/3
f 87/119/3 208/128/3 217/129/3 94/124/3
f 85/118/6 82/117/6 90/41/6 93/130/6
f 82/117/6 83/120/6 91/42/6 90/41/6
f 84/79/6 85/118/6 93/130/6 92/131/6
f 206/132/2 86/123/2 88/126/2 211/133/2
f 95/127/28 89/80/28 84/79/28 92/131/28
f 95/127/29 88/126/29 86/123/29 89/80/29
f 37/86/15 2/85/15 83/120/15 82/117/15
f 75/112/10 74/111/10 92/131/10 93/130/10
f 4/20/15 3/23/15 85/118/15 84/79/15
f 72/40/10 75/112/10 93/130/10 90/41/10
f 76/115/30 192/116/30 211/133/30 88/126/30
f 99/8/24 21/7/24 86/123/24 206/132/24
f 74/111/31 81/125/31 95/127/31 92/131/31
f 194/110/25 77/109/25 94/124/25 217/129/25
f 138/134/1 145/135/1 124/3/1 108/2/1
f 138/134/2 108/2/2 102/6/2 134/136/2
f 134/136/2 102/6/2 99/8/2 132/137/2
f 133/138/3 100/12/3 103/11/3 135/139/3
f 171/140/32 175/141/32 130/142/32 111/143/32
f 137/144/33 167/145/33 166/146/33 135/139/33
f 101/147/22 98/148/22 104/149/22 168/150/22
f 137/144/7 144/151/7 119/152/7 107/153/7
f 152/154/32 156/155/32 125/156/32 112/157/32
f 140/158/8 147/159/8 127/33/8 115/32/8
f 177/160/9 169/38/9 105/37/9 136/161/9
f 188/162/34 213/163/34 212/164/34 187/165/34
f 168/150/22 104/149/22 110/166/22 170/167/22
f 135/139/3 103/11/3 109/45/3 137/144/3
f 170/167/35 174/168/35 117/169/35 106/170/35
f 107/153/12 163/171/12 167/145/12 137/144/12
f 157/172/12 140/158/12 115/32/12 153/51/12
f 176/173/12 141/174/12 116/54/12 172/53/12
f 151/175/35 155/176/35 129/177/35 110/166/35
f 139/178/13 146/179/13 131/180/13 113/181/13
f 155/176/22 119/152/22 120/182/22 154/183/22
f 144/151/3 128/67/3 123/66/3 143/184/3
f 174/168/22 129/177/22 121/185/22 173/186/22
f 173/186/12 175/141/12 131/180/12 118/187/12
f 143/184/12 147/159/12 125/156/12 120/182/12
f 142/188/2 122/72/2 124/3/2 145/135/2
f 154/183/12 156/155/12 130/142/12 121/185/12
f 142/188/12 146/179/12 126/73/12 122/72/12
f 118/187/12 131/180/12 146/179/12 142/188/12
f 118/187/2 142/188/2 145/135/2 117/169/2
f 123/66/12 127/33/12 147/159/12 143/184/12
f 119/152/3 144/151/3 143/184/3 120/182/3
f 114/74/13 126/73/13 146/179/13 139/178/13
f 171/140/12 111/143/12 141/174/12 176/173/12
f 152/154/12 112/157/12 140/158/12 157/172/12
f 149/189/36 162/190/36 164/191/36 151/175/36
f 96/192/37 210/193/37 203/194/37 101/147/37
f 177/195/2 198/196/2 189/197/2 101/198/2
f 112/157/8 125/156/8 147/159/8 140/158/8
f 109/45/7 128/67/7 144/151/7 137/144/7
f 97/199/9 160/200/9 159/201/9 148/202/9
f 132/137/38 181/203/38 182/204/38 134/136/38
f 170/167/39 186/205/39 185/206/39 168/150/39
f 106/170/1 117/169/1 145/135/1 138/134/1
f 150/93/2 199/96/2 197/207/2 158/208/2
f 111/143/12 152/154/12 157/172/12 141/174/12
f 120/182/12 125/156/12 156/155/12 154/183/12
f 129/177/22 155/176/22 154/183/22 121/185/22
f 107/153/35 119/152/35 155/176/35 151/175/35
f 141/174/12 157/172/12 153/51/12 116/54/12
f 104/149/22 149/189/22 151/175/22 110/166/22
f 136/161/9 105/37/9 150/93/9 158/208/9
f 111/143/32 130/142/32 156/155/32 152/154/32
f 98/148/22 148/202/22 149/189/22 104/149/22
f 159/201/22 160/200/22 161/209/22 162/190/22
f 162/190/22 161/209/22 163/171/22 164/191/22
f 161/209/3 166/146/3 167/145/3 163/171/3
f 160/200/3 165/210/3 166/146/3 161/209/3
f 151/175/12 164/191/12 163/171/12 107/153/12
f 133/138/9 165/210/9 160/200/9 97/199/9
f 148/202/36 159/201/36 162/190/36 149/189/36
f 135/139/33 166/146/33 165/210/33 133/138/33
f 96/211/9 132/212/9 177/195/9 101/198/9
f 113/181/12 171/140/12 176/173/12 139/178/12
f 121/185/12 130/142/12 175/141/12 173/186/12
f 117/169/22 174/168/22 173/186/22 118/187/22
f 139/178/12 176/173/12 172/53/12 114/74/12
f 110/166/35 129/177/35 174/168/35 170/167/35
f 96/213/18 178/214/18 181/203/18 132/137/18
f 177/160/3 198/215/3 195/103/3 169/38/3
f 168/150/39 185/206/39 184/216/39 101/147/39
f 113/181/32 131/180/32 175/141/32 171/140/32
f 179/217/2 182/204/2 181/203/2 178/214/2
f 180/218/2 183/219/2 182/204/2 179/217/2
f 179/217/22 185/206/22 186/205/22 180/218/22
f 178/214/22 184/216/22 185/206/22 179/217/22
f 101/147/40 184/216/40 178/214/40 96/213/40
f 134/136/38 182/204/38 183/219/38 138/134/38
f 106/170/41 180/218/41 186/205/41 170/167/41
f 138/134/21 183/219/21 180/218/21 106/170/21
f 197/207/9 199/96/9 194/110/9 193/220/9
f 187/165/9 197/207/9 193/220/9 188/162/9
f 189/221/9 198/222/9 196/223/9 190/224/9
f 190/224/9 196/223/9 197/207/9 187/165/9
f 191/225/9 192/116/9 195/103/9 198/215/9
f 158/208/6 197/207/6 196/223/6 136/161/6
f 98/148/37 204/226/37 201/227/37 148/202/37
f 97/199/23 202/228/23 207/229/23 133/138/23
f 132/212/22 191/230/22 198/231/22 177/195/22
f 132/137/24 205/232/24 210/193/24 96/192/24
f 193/220/25 216/233/25 213/163/25 188/162/25
f 136/161/6 196/223/6 198/222/6 177/160/6
f 200/234/42 218/235/42 209/236/42 191/225/42
f 133/138/23 207/229/23 208/128/23 100/12/23
f 189/221/43 200/234/43 191/225/43 198/222/43
f 202/228/3 213/163/3 216/233/3 207/229/3
f 207/229/3 216/233/3 217/129/3 208/128/3
f 204/226/22 215/237/22 212/164/22 201/227/22
f 201/227/22 212/164/22 213/163/22 202/228/22
f 203/194/22 214/238/22 215/237/22 204/226/22
f 206/132/2 211/133/2 209/236/2 205/232/2
f 218/235/44 214/238/44 203/194/44 210/193/44
f 218/235/45 210/193/45 205/232/45 209/236/45
f 148/202/37 201/227/37 202/228/37 97/199/37
f 190/224/34 215/237/34 214/238/34 189/221/34
f 101/147/37 203/194/37 204/226/37 98/148/37
f 187/165/34 212/164/34 215/237/34 190/224/34
f 191/225/30 209/236/30 211/133/30 192/116/30
f 99/8/24 206/132/24 205/232/24 132/137/24
f 189/221/46 214/238/46 218/235/46 200/234/46
f 194/110/25 217/129/25 216/233/25 193/220/25
