# Blender v2.79 (sub 0) OBJ File: 'caja.blend'
# www.blender.org
mtllib caja.mtl
o Cube
v 1.032005 -0.363757 -1.027306
v 1.032005 -0.363757 0.972694
v 1.032006 1.036800 -1.027306
v 1.032005 1.036800 0.972694
v 0.871195 1.036614 -0.866495
v 0.871194 1.036614 0.811883
v 0.871195 0.005431 -0.866495
v 0.871194 0.005431 0.811883
v 1.032006 0.905149 -1.027306
v 1.032005 0.905149 0.972694
v 1.085638 0.411194 1.836439
v 1.085638 0.542845 1.836439
v 1.773630 0.494232 -1.089096
v 1.773630 0.625883 -1.089096
v 1.773629 0.494232 0.910904
v 1.773629 0.625883 0.910904
v 0.960703 0.432497 -1.812607
v 0.960703 0.564148 -1.812607
v -1.032005 -0.363757 -1.027306
v -1.032005 -0.363757 0.972694
v -1.032006 1.036800 -1.027306
v -1.032005 1.036800 0.972694
v -0.871195 1.036614 -0.866495
v -0.871194 1.036614 0.811883
v -0.871195 0.005431 -0.866495
v -0.871194 0.005431 0.811883
v -1.032006 0.905149 -1.027306
v -1.032005 0.905149 0.972694
v -1.085638 0.411194 1.836439
v -1.085638 0.542845 1.836439
v -1.773630 0.494232 -1.089096
v -1.773630 0.625883 -1.089096
v -1.773629 0.494232 0.910904
v -1.773629 0.625883 0.910904
v -0.960703 0.432497 -1.812607
v -0.960703 0.564148 -1.812607
v 0.000000 -0.363757 -1.027306
v 0.000000 -0.363757 0.972694
v 0.000000 1.036800 -1.027306
v 0.000000 1.036800 0.972694
v 0.000000 1.036614 -0.866495
v 0.000000 1.036614 0.811883
v 0.000000 0.005431 -0.866495
v 0.000000 0.005431 0.811883
v 0.000000 0.905149 -1.027306
v 0.000000 0.905149 0.972694
v 0.000000 0.542845 1.836439
v 0.000000 0.411194 1.836439
v 0.000000 0.564148 -1.812607
v 0.000000 0.432497 -1.812607
vt 0.264533 0.802597
vt 0.289954 0.800709
vt 0.371201 0.927852
vt 0.354551 0.940406
vt 0.482300 0.769172
vt 0.490032 0.577238
vt 0.518735 0.608351
vt 0.512208 0.770377
vt 0.613866 0.717141
vt 0.958279 0.717140
vt 0.930587 0.744833
vt 0.641559 0.744833
vt 0.032396 0.118850
vt 0.166954 0.015591
vt 0.238998 0.145647
vt 0.154618 0.278118
vt 0.465710 0.015591
vt 0.394014 0.175097
vt 0.220999 0.527802
vt 0.201986 0.535492
vt 0.120923 0.467592
vt 0.131212 0.460981
vt 0.955154 0.283418
vt 0.955154 0.501932
vt 0.610741 0.501932
vt 0.610742 0.283418
vt 0.465907 0.568674
vt 0.382602 0.665991
vt 0.372562 0.658769
vt 0.281087 0.568672
vt 0.281087 0.746866
vt 0.579642 0.972137
vt 0.599613 0.999774
vt 0.718902 0.800713
vt 0.756711 0.807627
vt 0.624507 0.571134
vt 0.968920 0.571134
vt 0.220999 0.337225
vt 0.062366 0.379801
vt 0.013611 0.560498
vt 0.045952 0.395472
vt 0.297247 0.761716
vt 0.465909 0.341423
vt 0.281087 0.341423
vt 0.618926 0.147078
vt 0.448677 0.295726
vt 0.250695 0.337225
vt 0.250695 0.498105
vt 0.232732 0.767109
vt 0.044358 0.792115
vt 0.978037 0.168695
vt 0.669472 0.168695
vt 0.669472 0.009475
vt 0.978037 0.009475
vt 0.264533 0.802597
vt 0.354551 0.940406
vt 0.371201 0.927852
vt 0.289954 0.800709
vt 0.518735 0.608351
vt 0.490032 0.577238
vt 0.613866 0.717141
vt 0.641559 0.744833
vt 0.930587 0.744833
vt 0.958279 0.717140
vt 0.238998 0.145647
vt 0.166954 0.015591
vt 0.394014 0.175097
vt 0.465710 0.015591
vt 0.220999 0.527802
vt 0.131212 0.460981
vt 0.120923 0.467592
vt 0.201986 0.535492
vt 0.955154 0.283418
vt 0.610742 0.283418
vt 0.610741 0.501932
vt 0.955154 0.501932
vt 0.465907 0.568674
vt 0.372562 0.658769
vt 0.382602 0.665991
vt 0.579642 0.972137
vt 0.599613 0.999774
vt 0.718902 0.800713
vt 0.756711 0.807627
vt 0.968920 0.571134
vt 0.624507 0.571134
vt 0.465909 0.341423
vt 0.250695 0.498105
vt 0.232732 0.767109
vt 0.978037 0.168695
vt 0.669472 0.168695
vn 0.0830 -0.0000 0.9965
vn 0.0000 1.0000 -0.0012
vn -0.0012 1.0000 0.0000
vn 0.0000 0.0000 -1.0000
vn -1.0000 0.0000 -0.0000
vn 0.9959 -0.0000 -0.0904
vn 1.0000 0.0000 0.0000
vn 0.9981 0.0000 -0.0620
vn 0.0000 -0.8681 -0.4964
vn -0.0830 0.0000 -0.9965
vn -0.4847 -0.8747 -0.0000
vn 0.4847 0.8747 0.0000
vn 0.0000 0.8568 -0.5157
vn -0.0000 -0.8568 0.5157
vn -0.0000 0.8681 0.4964
vn -0.0000 -0.0000 1.0000
vn -0.0000 1.0000 0.0012
vn 0.0000 -1.0000 0.0000
vn 0.0000 1.0000 0.0000
vn -0.0830 -0.0000 0.9965
vn 0.0012 1.0000 0.0000
vn -0.9959 -0.0000 -0.0904
vn -0.9981 0.0000 -0.0620
vn 0.0830 0.0000 -0.9965
vn 0.4847 -0.8747 -0.0000
vn -0.4847 0.8747 0.0000
usemtl Material
s off
f 4/1/1 10/2/1 15/3/1 16/4/1
f 40/5/2 4/6/2 6/7/2 42/8/2
f 4/9/3 3/10/3 5/11/3 6/12/3
f 42/13/4 6/14/4 8/15/4 44/16/4
f 6/14/5 5/17/5 7/18/5 8/15/5
f 3/19/6 9/20/6 17/21/6 18/22/6
f 1/23/7 9/24/7 10/25/7 2/26/7
f 10/27/8 4/6/8 12/28/8 11/29/8
f 46/30/9 10/27/9 11/29/9 48/31/9
f 13/32/7 14/33/7 16/4/7 15/3/7
f 9/34/10 3/35/10 14/33/10 13/32/10
f 10/2/11 9/34/11 13/32/11 15/3/11
f 3/10/12 4/9/12 16/36/12 14/37/12
f 39/38/13 3/19/13 18/22/13 49/39/13
f 9/20/14 45/40/14 50/41/14 17/21/14
f 18/22/4 17/21/4 50/41/4 49/39/4
f 4/6/15 40/5/15 47/42/15 12/28/15
f 11/29/16 12/28/16 47/42/16 48/31/16
f 2/43/16 10/27/16 46/30/16 38/44/16
f 5/17/16 41/45/16 43/46/16 7/18/16
f 3/19/17 39/38/17 41/47/17 5/48/17
f 9/20/4 1/49/4 37/50/4 45/40/4
f 1/51/18 2/52/18 38/53/18 37/54/18
f 8/15/19 7/18/19 43/46/19 44/16/19
f 22/55/20 34/56/20 33/57/20 28/58/20
f 40/5/2 42/8/2 24/59/2 22/60/2
f 22/61/21 24/62/21 23/63/21 21/64/21
f 42/13/4 44/16/4 26/65/4 24/66/4
f 24/66/7 26/65/7 25/67/7 23/68/7
f 21/69/22 36/70/22 35/71/22 27/72/22
f 19/73/5 20/74/5 28/75/5 27/76/5
f 28/77/23 29/78/23 30/79/23 22/60/23
f 46/30/9 48/31/9 29/78/9 28/77/9
f 31/80/5 33/57/5 34/56/5 32/81/5
f 27/82/24 31/80/24 32/81/24 21/83/24
f 28/58/25 33/57/25 31/80/25 27/82/25
f 21/64/26 32/84/26 34/85/26 22/61/26
f 39/38/13 49/39/13 36/70/13 21/69/13
f 27/72/14 35/71/14 50/41/14 45/40/14
f 36/70/4 49/39/4 50/41/4 35/71/4
f 22/60/15 30/79/15 47/42/15 40/5/15
f 29/78/16 48/31/16 47/42/16 30/79/16
f 20/86/16 38/44/16 46/30/16 28/77/16
f 23/68/16 25/67/16 43/46/16 41/45/16
f 21/69/17 23/87/17 41/47/17 39/38/17
f 27/72/4 45/40/4 37/50/4 19/88/4
f 19/89/18 37/54/18 38/53/18 20/90/18
f 26/65/19 44/16/19 43/46/19 25/67/19
