# Blender v2.79 (sub 0) OBJ File: ''
# www.blender.org
mtllib espada.mtl
o Cube.001
v -1.000000 -1.000000 -0.275913
v 1.000000 -1.000000 -0.275913
v 1.000000 -1.000000 0.275914
v -1.000000 -1.000000 0.275914
v -1.000000 1.000000 -0.275913
v -1.000000 1.000000 0.275914
v 1.000000 1.000000 0.275914
v 1.000000 1.000000 -0.275913
v -1.000000 -0.000985 -0.347887
v 1.000000 -0.000985 -0.347887
v 4.951602 -1.000000 -0.275912
v 4.951602 -1.000000 0.275914
v 1.000000 -0.000985 0.347888
v -1.000000 -0.000985 0.347888
v -0.999999 1.154522 -0.318548
v -1.000000 1.154522 0.318549
v 4.951602 -0.000986 0.347888
v 8.283892 -0.027390 0.007558
v 8.283892 -0.000027 0.009530
v 4.951602 1.000000 0.275914
v 4.951602 1.000000 -0.275912
v 4.951602 -0.000986 -0.347886
v 8.283892 -0.000027 -0.009527
v 8.283892 0.027389 -0.007556
v 8.283892 0.027389 0.007558
v 8.283892 -0.027390 -0.007556
v -0.999999 1.730805 -0.318548
v -1.000000 1.730805 0.318549
v -1.000000 -0.001137 0.401644
v -1.000001 -1.154522 0.318549
v -1.000000 -1.154522 -0.318547
v -1.000000 -0.001137 -0.401643
v -1.594825 1.154522 -0.318548
v -1.594826 0.174790 -0.318548
v -1.594826 0.194565 0.318548
v -1.594826 1.154522 0.318548
v -1.594826 -1.154522 -0.318548
v -1.594826 -0.346096 -0.318548
v -1.594826 -0.331792 0.318548
v -1.594826 -1.154522 0.318548
v -1.000000 -1.802972 -0.318547
v -1.594826 -1.802972 -0.318548
v -1.000001 -1.802972 0.318549
v -1.594827 -1.802972 0.318548
v -1.594825 1.730805 -0.318548
v -1.594826 1.730805 0.318548
v -3.118052 -0.346095 -0.318550
v -3.118053 -0.331791 0.318547
v -3.660162 -0.467467 0.488260
v -3.660161 -0.489391 -0.488264
v -3.118052 0.174790 -0.318550
v -3.118053 0.194566 0.318547
v -3.660161 0.309008 -0.488264
v -4.236722 -0.489391 -0.488265
v -4.236722 0.309008 -0.488265
v -3.660161 0.339320 0.488260
v -4.236723 0.339320 0.488260
v -4.543438 0.138762 -0.272994
v -4.543438 0.155710 0.272989
v -4.236724 -0.467467 0.488260
v -4.543438 -0.307629 -0.272994
v -4.543439 -0.295371 0.272989
vt 0.529362 0.517233
vt 0.391987 0.545815
vt 0.385867 0.513751
vt 0.522285 0.491205
vt 0.448137 0.293798
vt 0.496338 0.320632
vt 0.347135 0.391341
vt 0.333735 0.361745
vt 0.535761 0.586557
vt 0.543280 0.658685
vt 0.411316 0.673278
vt 0.403223 0.609301
vt 0.180181 0.590570
vt 0.177004 0.563664
vt 0.369518 0.453795
vt 0.509659 0.412612
vt 0.451822 0.279760
vt 0.500170 0.307751
vt 0.159096 0.513468
vt 0.058540 0.587741
vt 0.055536 0.587060
vt 0.134323 0.465137
vt 0.117085 0.441842
vt 0.167718 0.698635
vt 0.174079 0.647210
vt 0.055189 0.590238
vt 0.046945 0.588854
vt 0.052011 0.586243
vt 0.058681 0.589458
vt 0.489526 0.239098
vt 0.505220 0.275901
vt 0.513136 0.412307
vt 0.528886 0.498037
vt 0.532254 0.508082
vt 0.539582 0.587020
vt 0.566661 0.268126
vt 0.623397 0.322701
vt 0.586515 0.386221
vt 0.537937 0.296027
vt 0.548271 0.671603
vt 0.538255 0.504166
vt 0.593901 0.537151
vt 0.594629 0.595246
vt 0.594629 0.671603
vt 0.584273 0.455423
vt 0.537113 0.497649
vt 0.534865 0.501905
vt 0.534917 0.501830
vt 0.534699 0.501762
vt 0.534712 0.501656
vt 0.537301 0.242558
vt 0.522198 0.273994
vt 0.594629 0.716516
vt 0.548271 0.716516
vt 0.764027 0.549101
vt 0.774420 0.487160
vt 0.818959 0.492732
vt 0.814809 0.552166
vt 0.794814 0.362844
vt 0.778374 0.432731
vt 0.763730 0.600393
vt 0.820013 0.615104
vt 0.846645 0.546247
vt 0.877000 0.601576
vt 0.857430 0.358712
vt 0.831438 0.444117
vt 0.868046 0.455321
vt 0.914991 0.388411
vt 0.931180 0.426610
vt 0.898527 0.470946
vt 0.853048 0.496612
vt 0.913425 0.519218
vt 0.895618 0.562554
vt 0.869307 0.540409
vt 0.877200 0.505630
vn 0.8960 -0.3251 -0.3025
vn 0.0000 -0.7321 -0.6812
vn -0.0000 -0.7321 0.6812
vn 0.8960 -0.3251 0.3025
vn 0.8960 0.3250 -0.3025
vn 0.8960 0.3250 0.3025
vn 0.0000 0.7320 0.6813
vn 0.0000 0.7320 -0.6813
vn 0.7236 -0.0000 -0.6902
vn 0.0000 -0.0001 -1.0000
vn 0.1268 -0.7416 -0.6587
vn 0.1268 -0.7416 0.6587
vn 0.0000 -0.0001 1.0000
vn 0.7236 -0.0000 0.6902
vn 0.7033 -0.0000 -0.7109
vn 0.7033 -0.0000 0.7109
vn 0.0505 -0.0001 0.9987
vn 0.6741 -0.5044 0.5395
vn 0.7270 -0.0000 0.6867
vn 0.1268 0.7416 0.6587
vn 0.1268 0.7416 -0.6587
vn 0.0505 -0.0001 -0.9987
vn 0.7270 -0.0000 -0.6866
vn 0.6741 0.5044 -0.5396
vn 0.6741 0.5044 0.5396
vn 0.6741 -0.5044 -0.5395
vn 0.5774 0.5774 -0.5773
vn 0.5773 0.5774 0.5774
vn 0.6820 -0.0000 0.7313
vn 0.6820 -0.0000 -0.7313
vn -0.7195 0.0000 -0.6945
vn -0.3314 0.2959 -0.8959
vn -0.3475 0.2996 0.8885
vn -0.7195 0.0000 0.6945
vn -0.3452 -0.2992 -0.8896
vn -0.3336 -0.2965 0.8949
vn 0.5774 -0.5774 -0.5773
vn -0.5773 -0.5773 -0.5774
vn 0.5773 -0.5774 0.5774
vn -0.5774 -0.5773 0.5773
vn -0.5773 0.5774 -0.5774
vn -0.5774 0.5774 0.5773
vn 0.2109 -0.7069 -0.6752
vn 0.2059 -0.6922 0.6917
vn 0.1749 -0.6842 0.7080
vn 0.1779 -0.6996 -0.6921
vn 0.2049 0.6893 -0.6949
vn 0.2119 0.7096 0.6720
vn 0.1743 0.6812 -0.7111
vn -0.3162 -0.6734 -0.6683
vn -0.3124 0.6560 -0.6871
vn 0.1784 0.7025 0.6890
vn -0.3168 0.6761 0.6652
vn -0.8368 0.4014 -0.3723
vn -0.8392 0.4106 0.3567
vn -0.3130 -0.6588 0.6841
vn -0.8388 -0.4093 -0.3589
vn -0.8371 -0.4027 0.3702
usemtl Material.001
s 1
f 1/1/1 2/2/2 3/3/3 4/4/4
f 5/5/5 6/6/6 7/7/7 8/8/8
f 9/9/9 5/10/5 8/11/8 10/12/10
f 3/3/3 2/2/2 11/13/11 12/14/12
f 13/15/13 7/7/7 6/6/6 14/16/14
f 6/6/6 5/5/5 15/17/15 16/18/16
f 17/19/17 12/14/12 18/20/18 19/21/19
f 8/8/8 7/7/7 20/22/20 21/23/21
f 13/15/13 3/3/3 12/14/12 17/19/17
f 10/12/10 8/11/8 21/24/21 22/25/22
f 23/26/23 24/27/24 25/28/25 19/21/19
f 12/14/12 11/13/11 26/29/26 18/20/18
f 21/23/21 20/22/20 25/28/25 24/27/24
f 22/25/22 21/24/21 24/27/24 23/26/23
f 16/18/16 15/17/15 27/30/27 28/31/28
f 14/16/14 6/6/6 16/18/16 29/32/29
f 1/1/1 4/4/4 30/33/16 31/34/15
f 9/9/9 1/1/1 31/34/15 32/35/30
f 33/36/31 34/37/32 35/38/33 36/39/34
f 15/40/15 32/35/30 31/34/15 37/41/31 38/42/35 34/43/32 33/44/31
f 30/33/16 29/32/29 16/18/16 36/39/34 35/38/33 39/45/36 40/46/34
f 37/41/31 31/34/15 41/47/37 42/48/38
f 41/47/37 43/49/39 44/50/40 42/48/38
f 40/46/34 37/41/31 42/48/38 44/50/40
f 30/33/16 40/46/34 44/50/40 43/49/39
f 31/34/15 30/33/16 43/49/39 41/47/37
f 28/31/28 27/30/27 45/51/41 46/52/42
f 15/40/15 33/44/31 45/53/41 27/54/27
f 36/39/34 16/18/16 28/31/28 46/52/42
f 33/36/31 36/39/34 46/52/42 45/51/41
f 47/55/43 48/56/44 49/57/45 50/58/46
f 35/38/33 34/37/32 51/59/47 52/60/48
f 39/45/36 38/42/35 37/41/31 40/46/34
f 38/42/35 39/45/36 48/56/44 47/55/43
f 34/43/32 38/42/35 47/55/43 51/61/47
f 39/45/36 35/38/33 52/60/48 48/56/44
f 53/62/49 50/58/46 54/63/50 55/64/51
f 51/61/47 47/55/43 50/58/46 53/62/49
f 52/60/48 51/59/47 53/65/49 56/66/52
f 48/56/44 52/60/48 56/66/52 49/57/45
f 57/67/53 55/68/51 58/69/54 59/70/55
f 56/66/52 53/65/49 55/68/51 57/67/53
f 49/57/45 56/66/52 57/67/53 60/71/56
f 50/58/46 49/57/45 60/71/56 54/63/50
f 59/72/55 58/73/54 61/74/57 62/75/58
f 60/71/56 57/67/53 59/70/55 62/75/58
f 54/63/50 60/71/56 62/75/58 61/74/57
f 55/64/51 54/63/50 61/74/57 58/73/54
f 5/10/5 9/9/9 32/35/30 15/40/15
f 4/4/4 14/16/14 29/32/29 30/33/16
f 11/13/11 22/25/22 23/26/23 26/29/26
f 26/29/26 23/26/23 19/21/19 18/20/18
f 2/2/2 10/12/10 22/25/22 11/13/11
f 7/7/7 13/15/13 17/19/17 20/22/20
f 20/22/20 17/19/17 19/21/19 25/28/25
f 3/3/3 13/15/13 14/16/14 4/4/4
f 1/1/1 9/9/9 10/12/10 2/2/2
