# Blender v2.79 (sub 0) OBJ File: 'RUBI.blend'
# www.blender.org
mtllib RUBI.mtl
o Sphere
v -0.000000 0.654441 0.000000
v 0.000000 0.382683 -0.923880
v 0.000000 0.195090 -1.052892
v 0.000000 0.024648 -0.943634
v 0.000000 -0.556631 -0.408145
v 0.000000 -0.719570 -0.229720
v 0.800103 0.382683 -0.461940
v 0.911831 0.195090 -0.526446
v 0.817211 0.024648 -0.471817
v 0.353464 -0.556631 -0.204072
v 0.198943 -0.719570 -0.114860
v 0.800103 0.382683 0.461940
v 0.911831 0.195090 0.526446
v 0.817211 0.024648 0.471818
v 0.353464 -0.556631 0.204073
v 0.198943 -0.719570 0.114860
v -0.518994 0.534201 -0.299641
v -0.000000 0.382683 0.923880
v -0.000000 0.195090 1.052892
v -0.000000 0.024648 0.943635
v -0.000000 -0.556631 0.408146
v -0.000000 -0.719570 0.229720
v -0.518995 0.534201 0.299642
v -0.000000 0.534201 0.599284
v 0.518994 0.534201 0.299642
v -0.800104 0.382683 0.461940
v -0.911831 0.195090 0.526446
v -0.817211 0.024648 0.471817
v -0.353464 -0.556631 0.204073
v -0.198943 -0.719570 0.114860
v 0.518994 0.534201 -0.299641
v -0.000000 0.534201 -0.599283
v -0.800103 0.382683 -0.461940
v -0.911831 0.195090 -0.526446
v -0.817211 0.024648 -0.471817
v -0.353464 -0.556631 -0.204073
v -0.198943 -0.719570 -0.114860
v 0.000000 -0.790104 -0.153821
v 0.133213 -0.790104 -0.076910
v 0.133213 -0.790104 0.076911
v -0.000000 -0.790104 0.153822
v -0.133213 -0.790104 0.076911
v -0.133213 -0.790104 -0.076910
v -0.000000 -0.820364 -0.094241
v 0.081616 -0.820364 -0.047121
v 0.081616 -0.820364 0.047121
v -0.000000 -0.820364 0.094242
v -0.081616 -0.820364 0.047121
v -0.081616 -0.820364 -0.047121
v -0.000000 -0.850280 0.000000
vt 0.197965 0.284934
vt 0.179067 0.255245
vt 0.280076 0.174350
vt 0.302686 0.197998
vt 0.368396 0.440652
vt 0.324295 0.404867
vt 0.400793 0.354874
vt 0.417234 0.409948
vt 0.215232 0.308497
vt 0.324249 0.222934
vt 0.292682 0.000101
vt 0.236598 0.135041
vt 0.101012 0.059492
vt 0.154633 0.205914
vt 0.016022 0.237629
vt 0.219139 0.999899
vt 0.275222 0.864959
vt 0.410809 0.940508
vt 0.395899 0.014366
vt 0.451648 0.037672
vt 0.511720 0.346728
vt 0.482411 0.418652
vt 0.480721 0.088203
vt 0.357188 0.794086
vt 0.495798 0.599926
vt 0.511719 0.663578
vt 0.332754 0.744755
vt 0.313855 0.715066
vt 0.162549 0.500101
vt 0.233537 0.500101
vt 0.187526 0.595133
vt 0.143424 0.559348
vt 0.456577 0.567998
vt 0.296588 0.691503
vt 0.495799 0.762370
vt 0.231745 0.825650
vt 0.209135 0.802002
vt 0.111028 0.645127
vt 0.094587 0.590052
vt 0.187572 0.777066
vt 0.115922 0.985634
vt 0.060173 0.962328
vt 0.000101 0.653272
vt 0.029410 0.581348
vt 0.031100 0.911797
vt 0.278284 0.499899
vt 0.055243 0.432002
vt 0.016023 0.400074
vt 0.000101 0.336422
vt 0.349272 0.499899
vt 0.047103 0.553898
vt 0.089250 0.564097
vt 0.122343 0.543669
vt 0.132276 0.502188
vt 0.389478 0.456331
vt 0.379544 0.497812
vt 0.422570 0.435904
vt 0.464718 0.446102
vt 0.060845 0.538808
vt 0.086820 0.546902
vt 0.108107 0.533627
vt 0.112578 0.506925
vt 0.425000 0.453098
vt 0.403714 0.466373
vt 0.399243 0.493075
vt 0.450976 0.461192
vt 0.427843 0.481595
vt 0.083978 0.518405
vn 0.4296 0.5117 -0.7441
vn 0.3628 -0.6881 -0.6284
vn 0.4372 -0.4854 -0.7572
vn 0.2257 0.9742 0.0000
vn -0.1129 0.9742 -0.1955
vn -0.2257 0.9742 0.0000
vn 0.8592 0.5117 0.0000
vn 0.7256 -0.6881 0.0000
vn 0.8743 -0.4854 0.0000
vn -0.1129 0.9742 0.1955
vn 0.4296 0.5117 0.7441
vn 0.3628 -0.6881 0.6284
vn 0.4372 -0.4854 0.7572
vn 0.1129 0.9742 0.1955
vn 0.1129 0.9742 -0.1955
vn -0.4296 0.5117 0.7441
vn -0.3628 -0.6881 0.6284
vn -0.4372 -0.4854 0.7572
vn 0.2372 0.8803 0.4109
vn -0.4745 0.8803 -0.0000
vn -0.8592 0.5117 -0.0000
vn -0.7256 -0.6881 -0.0000
vn -0.8743 -0.4854 -0.0000
vn 0.4745 0.8803 0.0000
vn 0.2372 0.8803 -0.4109
vn -0.3909 -0.6236 -0.6770
vn 0.7817 -0.6236 0.0000
vn 0.3909 -0.6236 -0.6770
vn -0.7817 -0.6236 -0.0000
vn -0.4296 0.5117 -0.7441
vn -0.3628 -0.6881 -0.6284
vn -0.4372 -0.4854 -0.7572
vn -0.2372 0.8803 -0.4109
vn -0.3909 -0.6236 0.6770
vn -0.2372 0.8803 0.4109
vn 0.3909 -0.6236 0.6770
vn -0.7316 -0.6818 -0.0000
vn 0.3658 -0.6818 0.6336
vn -0.3658 -0.6818 -0.6336
vn -0.3658 -0.6818 0.6336
vn 0.3658 -0.6818 -0.6336
vn 0.7316 -0.6818 0.0000
vn -0.5059 -0.8626 -0.0000
vn 0.2529 -0.8626 0.4381
vn 0.2529 -0.8626 -0.4381
vn -0.2529 -0.8626 -0.4381
vn -0.2529 -0.8626 0.4381
vn 0.5059 -0.8626 0.0000
vn -0.1721 -0.9389 -0.2980
vn -0.1721 -0.9389 0.2980
vn 0.3442 -0.9389 0.0000
vn -0.3442 -0.9389 0.0000
vn 0.1721 -0.9389 0.2980
vn 0.1721 -0.9389 -0.2980
usemtl None
s off
f 3/1/1 2/2/1 7/3/1 8/4/1
f 6/5/2 5/6/2 10/7/2 11/8/2
f 4/9/3 3/1/3 8/4/3 9/10/3
f 25/11/4 31/12/4 1/13/4
f 32/14/5 17/15/5 1/13/5
f 17/16/6 23/17/6 1/18/6
f 8/4/7 7/3/7 12/19/7 13/20/7
f 11/8/8 10/7/8 15/21/8 16/22/8
f 9/10/9 8/4/9 13/20/9 14/23/9
f 23/17/10 24/24/10 1/18/10
f 13/25/11 12/26/11 18/27/11 19/28/11
f 16/29/12 15/30/12 21/31/12 22/32/12
f 14/33/13 13/25/13 19/28/13 20/34/13
f 24/24/14 25/35/14 1/18/14
f 31/12/15 32/14/15 1/13/15
f 19/28/16 18/27/16 26/36/16 27/37/16
f 22/32/17 21/31/17 29/38/17 30/39/17
f 20/34/18 19/28/18 27/37/18 28/40/18
f 18/27/19 12/26/19 25/35/19 24/24/19
f 33/41/20 26/36/20 23/17/20 17/16/20
f 27/37/21 26/36/21 33/41/21 34/42/21
f 30/39/22 29/38/22 36/43/22 37/44/22
f 28/40/23 27/37/23 34/42/23 35/45/23
f 12/19/24 7/3/24 31/12/24 25/11/24
f 7/3/25 2/2/25 32/14/25 31/12/25
f 4/9/26 5/6/26 36/46/26 35/47/26
f 10/7/27 9/10/27 14/23/27 15/21/27
f 5/6/28 4/9/28 9/10/28 10/7/28
f 29/38/29 28/40/29 35/45/29 36/43/29
f 34/48/30 33/49/30 2/2/30 3/1/30
f 37/50/31 36/46/31 5/6/31 6/5/31
f 35/47/32 34/48/32 3/1/32 4/9/32
f 2/2/33 33/49/33 17/15/33 32/14/33
f 21/31/34 20/34/34 28/40/34 29/38/34
f 26/36/35 18/27/35 24/24/35 23/17/35
f 15/30/36 14/33/36 20/34/36 21/31/36
f 30/39/37 37/44/37 43/51/37 42/52/37
f 16/29/38 22/32/38 41/53/38 40/54/38
f 37/50/39 6/5/39 38/55/39 43/56/39
f 22/32/40 30/39/40 42/52/40 41/53/40
f 6/5/41 11/8/41 39/57/41 38/55/41
f 11/8/42 16/22/42 40/58/42 39/57/42
f 42/52/43 43/51/43 49/59/43 48/60/43
f 40/54/44 41/53/44 47/61/44 46/62/44
f 38/55/45 39/57/45 45/63/45 44/64/45
f 43/56/46 38/55/46 44/64/46 49/65/46
f 41/53/47 42/52/47 48/60/47 47/61/47
f 39/57/48 40/58/48 46/66/48 45/63/48
f 49/65/49 44/64/49 50/67/49
f 47/61/50 48/60/50 50/68/50
f 45/63/51 46/66/51 50/67/51
f 48/60/52 49/59/52 50/68/52
f 46/62/53 47/61/53 50/68/53
f 44/64/54 45/63/54 50/67/54
